<svg width="143" height="142" viewBox="0 0 143 142" fill="none" xmlns="http://www.w3.org/2000/svg">
<ellipse cx="71.511" cy="71" rx="70.6926" ry="71" fill="#FBFBFB"/>
<g clip-path="url(#clip0)">
<path d="M51.4355 61.3477C51.4355 72.8174 60.7263 82.1485 72.1463 82.1485C83.5664 82.1485 92.8571 72.8174 92.8571 61.3477C92.8571 49.878 83.5664 40.5469 72.1463 40.5469C60.7263 40.5469 51.4355 49.878 51.4355 61.3477ZM72.1463 43.3203C82.0438 43.3203 90.0956 51.4072 90.0956 61.3477C90.0956 71.2882 82.0438 79.3751 72.1463 79.3751C62.2488 79.3751 54.197 71.2882 54.197 61.3477C54.197 51.4072 62.2488 43.3203 72.1463 43.3203Z" fill="#000131"/>
<path d="M73.5272 36.3867C73.5272 37.1527 72.9091 37.7734 72.1465 37.7734C71.3839 37.7734 70.7658 37.1527 70.7658 36.3867C70.7658 35.6208 71.3839 35 72.1465 35C72.9091 35 73.5272 35.6208 73.5272 36.3867Z" fill="#000131"/>
<path d="M65.6391 35.8179C54.0243 38.7956 45.9126 49.294 45.9126 61.3482C45.9126 68.8348 49.0467 75.8892 54.5486 80.8852L46.2303 95.6088C45.9628 96.0828 45.9962 96.67 46.3155 97.1098C46.6348 97.5502 47.1806 97.762 47.7119 97.651L57.1585 95.6809L60.4787 105.078C60.6588 105.589 61.1199 105.947 61.6582 105.995C62.1965 106.043 62.7126 105.771 62.9796 105.299L72.1463 89.1135L81.3124 105.299C81.5594 105.735 82.0189 106 82.5119 106C82.5523 106 82.5933 105.998 82.6338 105.995C83.1721 105.947 83.6332 105.588 83.8139 105.078L87.1335 95.6809L96.5801 97.651C97.1108 97.7615 97.6572 97.5497 97.9765 97.1098C98.2963 96.67 98.3292 96.0828 98.0617 95.6088L89.7434 80.8852C95.2452 75.8892 98.3794 68.8348 98.3794 61.3482C98.3794 49.294 90.2676 38.7956 78.6534 35.8179C77.914 35.6283 77.1627 36.0763 76.9739 36.8184C76.7852 37.5605 77.2312 38.3156 77.9701 38.5052C88.3611 41.1692 95.6185 50.5626 95.6185 61.3482C95.6185 74.4749 85.0037 84.9224 72.1463 84.9224C59.2797 84.9224 48.6741 74.4662 48.6741 61.3482C48.6741 50.5626 55.9309 41.1692 66.3219 38.5052C67.0608 38.3156 67.5068 37.5605 67.3186 36.8184C67.1298 36.0763 66.3785 35.6283 65.6391 35.8179ZM62.0719 101.293L59.3584 93.6138C59.1276 92.9605 58.4523 92.5786 57.7766 92.7195L50.1378 94.3126L56.7211 82.6598C60.5596 85.4625 65.1046 87.1699 69.8309 87.5924L62.0719 101.293ZM86.5154 92.7195C85.8402 92.5786 85.1644 92.9605 84.9335 93.6138L82.2206 101.293L74.4611 87.5924C79.1879 87.1699 83.7324 85.4625 87.5715 82.6598L94.1547 94.3126L86.5154 92.7195Z" fill="#000131"/>
<path d="M80.9158 47.0109L62.2937 60.8237C61.8215 61.174 62.0641 61.9369 62.6466 61.9369H70.79C70.6681 61.856 70.1336 61.6158 69.8365 61.1899C69.3707 60.5212 69.4732 59.8617 69.8378 59.457C69.8624 59.4305 78.9166 49.3847 80.9859 47.0892C81.0196 47.0507 80.9872 47.0003 80.9483 47.0003C80.9379 46.9989 80.9262 47.0029 80.9158 47.0109Z" fill="#000131"/>
<path d="M70.2101 60.0634C70.3321 60.1443 70.8666 60.3845 71.1637 60.8104C71.6294 61.4792 71.5256 62.1386 71.1624 62.5433C71.1377 62.5699 62.0836 72.6157 60.0143 74.9112C59.9715 74.9589 60.0337 75.0279 60.0843 74.9881L78.7064 61.1766C79.1787 60.8263 78.9361 60.0634 78.3536 60.0634H70.2101Z" fill="#000131"/>
</g>
<defs>
<clipPath id="clip0">
<rect width="70.6926" height="71" fill="white" transform="translate(36.6621 35)"/>
</clipPath>
</defs>
</svg>
