<svg width="142" height="142" viewBox="0 0 142 142" fill="none" xmlns="http://www.w3.org/2000/svg">
<circle cx="71" cy="71" r="71" fill="#FBFBFB"/>
<path d="M64.4375 48H67.0625V50.625H64.4375V48Z" fill="#000131"/>
<path d="M74.9375 48H77.5625V50.625H74.9375V48Z" fill="#000131"/>
<path d="M71 59.8125C73.208 59.8125 74.9375 58.3712 74.9375 56.5312H72.3125C72.3125 56.7626 71.8142 57.1875 71 57.1875C70.1858 57.1875 69.6875 56.7626 69.6875 56.5312H67.0625C67.0625 58.3712 68.7921 59.8125 71 59.8125Z" fill="#000131"/>
<path d="M104.482 86.1888L99.4904 81.1969L97.6342 83.0531L102.626 88.0449C103.421 88.8353 104.051 89.7754 104.48 90.8109C104.909 91.8464 105.128 92.9566 105.125 94.0774V102.141C105.124 103.098 104.743 104.015 104.066 104.692C103.39 105.368 102.472 105.749 101.515 105.75H98.5623V99.1875H101.187V96.5625H95.9373V72.9375C95.9373 72.5894 95.799 72.2556 95.5529 72.0094C95.3067 71.7633 94.9729 71.625 94.6248 71.625H87.5071L80.0211 66.8611L78.9347 62.5156L79.394 62.2828C80.4244 61.7649 81.29 60.9702 81.8938 59.9878C82.4976 59.0053 82.8157 57.8741 82.8123 56.7209V55.875H83.4685C84.6865 55.8736 85.8541 55.3892 86.7153 54.528C87.5765 53.6668 88.0609 52.4992 88.0623 51.2812V49.9688C88.0609 48.768 87.59 47.6155 86.7501 46.7573C85.9103 45.8992 84.7682 45.4035 83.5678 45.3761C83.9338 44.7026 84.1253 43.9481 84.1248 43.1815V39.1406C84.1219 36.6178 83.1185 34.1991 81.3346 32.4152C79.5507 30.6313 77.132 29.6279 74.6092 29.625H67.3904C64.8676 29.6279 62.4489 30.6313 60.665 32.4152C58.8811 34.1991 57.8777 36.6178 57.8748 39.1406V43.1815C57.8745 43.9481 58.0663 44.7027 58.4326 45.3761C57.2321 45.4033 56.0897 45.8989 55.2497 46.757C54.4097 47.6152 53.9387 48.7679 53.9373 49.9688V51.2812C53.9387 52.4992 54.4231 53.6668 55.2843 54.528C56.1455 55.3892 57.3131 55.8736 58.531 55.875H59.1873V56.7706C59.1834 57.9292 59.5041 59.0658 60.1133 60.0514C60.7224 61.037 61.5955 61.8322 62.6336 62.3468L63.0546 62.5573L61.9785 66.8611L54.4925 71.625H47.3748C47.0267 71.625 46.6929 71.7633 46.4467 72.0094C46.2006 72.2556 46.0623 72.5894 46.0623 72.9375V77.6438L41.1967 82.5094L43.0529 84.3656L46.0623 81.3562V96.5625H40.8123V99.1875H43.4373V105.75H40.4842C39.5272 105.749 38.6098 105.368 37.9332 104.692C37.2565 104.015 36.8759 103.098 36.8748 102.141V94.0774C36.8717 92.9567 37.091 91.8464 37.5199 90.8109C37.9487 89.7754 38.5787 88.8353 39.3733 88.0449L40.4277 86.9906L38.5719 85.1344L37.5173 86.1888C36.4781 87.2224 35.6542 88.4518 35.0933 89.8058C34.5325 91.1599 34.2458 92.6118 34.2498 94.0774V102.141C34.2517 103.794 34.9091 105.378 36.0779 106.547C37.2466 107.716 38.8313 108.373 40.4842 108.375H101.515C103.168 108.373 104.753 107.716 105.922 106.547C107.09 105.378 107.748 103.794 107.75 102.141V94.0774C107.754 92.6118 107.467 91.1599 106.906 89.8058C106.345 88.4518 105.522 87.2224 104.482 86.1888ZM67.0623 74.25H74.9373V83.4375H67.0623V74.25ZM76.7935 71.625L79.0584 69.3609L82.6175 71.625H76.7935ZM61.5396 44.9173C61.2234 44.7516 60.959 44.5019 60.7755 44.1956C60.5921 43.8894 60.4967 43.5385 60.4998 43.1815V42.2097L65.263 39.5634C67.0158 38.5821 68.991 38.0669 70.9998 38.0669C73.0086 38.0669 74.9838 38.5821 76.7366 39.5634L81.4998 42.2097V43.1815C81.4998 43.5378 81.403 43.8874 81.2199 44.1931C81.0368 44.4988 80.7741 44.749 80.46 44.9172C80.1458 45.0853 79.7919 45.165 79.436 45.1478C79.0801 45.1306 78.7355 45.0171 78.439 44.8195L75.3681 42.7723C74.0755 41.9072 72.5552 41.4454 70.9998 41.4454C69.4444 41.4454 67.9241 41.9072 66.6315 42.7723L63.5605 44.8195C63.2653 45.0201 62.9204 45.1354 62.5638 45.1526C62.2073 45.1699 61.8529 45.0884 61.5396 44.9173ZM85.4373 49.9688V51.2812C85.4367 51.8032 85.2291 52.3037 84.86 52.6727C84.4909 53.0418 83.9905 53.2494 83.4685 53.25H82.8123V48H83.4685C83.9905 48.0006 84.4909 48.2082 84.86 48.5773C85.2291 48.9463 85.4367 49.4468 85.4373 49.9688ZM67.3904 32.25H74.6092C76.436 32.252 78.1875 32.9787 79.4793 34.2705C80.7711 35.5623 81.4977 37.3137 81.4998 39.1406V39.2063L78.0112 37.2688C75.8689 36.0695 73.4549 35.4397 70.9998 35.4397C68.5447 35.4397 66.1306 36.0695 63.9884 37.2688L60.4998 39.2063V39.1406C60.5018 37.3137 61.2285 35.5623 62.5203 34.2705C63.8121 32.9787 65.5635 32.252 67.3904 32.25ZM58.531 53.25C58.0091 53.2494 57.5086 53.0418 57.1395 52.6727C56.7705 52.3037 56.5629 51.8032 56.5623 51.2812V49.9688C56.5629 49.4468 56.7705 48.9463 57.1395 48.5773C57.5086 48.2082 58.0091 48.0006 58.531 48H59.1873V53.25H58.531ZM61.8123 56.7706V47.729C62.9333 47.8915 64.0748 47.6331 65.0166 47.0036L68.0875 44.9563C68.9493 44.3797 69.9628 44.0719 70.9996 44.0719C72.0365 44.0719 73.05 44.3797 73.9117 44.9563L76.9827 47.0036C77.9246 47.6329 79.0662 47.8912 80.1873 47.7288V56.7209C80.1893 57.3885 80.0051 58.0435 79.6556 58.6123C79.306 59.181 78.8049 59.6412 78.2084 59.941L71.88 63.1456C71.6056 63.2838 71.3028 63.3562 70.9956 63.357C70.6884 63.3578 70.3852 63.287 70.1101 63.1502L63.8076 59.999C63.2066 59.7011 62.7011 59.2407 62.3484 58.6701C61.9958 58.0994 61.81 57.4414 61.8123 56.7706ZM68.9361 65.4987C69.5779 65.818 70.2853 65.9832 71.0022 65.9814C71.719 65.9796 72.4256 65.8107 73.0658 65.4882L76.533 63.7328L77.4214 67.2859L73.0811 71.625H68.9185L64.5782 67.2849L65.4596 63.7598L68.9361 65.4987ZM62.9412 69.3608L65.2061 71.625H59.3819L62.9412 69.3608ZM48.6873 74.25H64.4373V84.75C64.4373 85.0981 64.5756 85.4319 64.8217 85.6781C65.0679 85.9242 65.4017 86.0625 65.7498 86.0625H76.2498C76.5979 86.0625 76.9317 85.9242 77.1779 85.6781C77.424 85.4319 77.5623 85.0981 77.5623 84.75V74.25H93.3123V96.5625H91.9998C89.4433 96.5659 86.9755 97.5005 85.0581 99.1915C83.1407 100.882 81.9049 103.214 81.5818 105.75H77.5623V99.1875C77.5623 98.8394 77.424 98.5056 77.1779 98.2594C76.9317 98.0133 76.5979 97.875 76.2498 97.875H65.7498C65.4017 97.875 65.0679 98.0133 64.8217 98.2594C64.5756 98.5056 64.4373 98.8394 64.4373 99.1875V105.75H60.4178C60.0947 103.214 58.8589 100.882 56.9415 99.1915C55.0241 97.5005 52.5563 96.5659 49.9998 96.5625H48.6873V74.25ZM46.0623 105.75V99.1875H49.9998C51.8602 99.1899 53.66 99.8498 55.081 101.051C56.502 102.252 57.4528 103.916 57.7654 105.75H46.0623ZM67.0623 105.75V100.5H74.9373V105.75H67.0623ZM95.9373 105.75H84.2342C84.5468 103.916 85.4976 102.252 86.9186 101.051C88.3396 99.8498 90.1393 99.1899 91.9998 99.1875H95.9373V105.75Z" fill="#000131"/>
<path d="M51.3125 76.875H53.9375V79.5H51.3125V76.875Z" fill="#000131"/>
<path d="M56.5625 76.875H61.8125V79.5H56.5625V76.875Z" fill="#000131"/>
<path d="M51.3125 82.125H61.8125V84.75H51.3125V82.125Z" fill="#000131"/>
<path d="M81.5 86.0625H86.0937C87.3117 86.0611 88.4793 85.5767 89.3405 84.7155C90.2017 83.8543 90.6861 82.6867 90.6875 81.4688V78.1875C90.6875 77.8394 90.5492 77.5056 90.3031 77.2594C90.0569 77.0133 89.7231 76.875 89.375 76.875H84.7812C83.5633 76.8764 82.3957 77.3608 81.5345 78.222C80.6733 79.0832 80.1889 80.2508 80.1875 81.4688V84.75C80.1875 85.0981 80.3258 85.4319 80.5719 85.6781C80.8181 85.9242 81.1519 86.0625 81.5 86.0625ZM82.8125 81.4688C82.8131 80.9468 83.0207 80.4463 83.3898 80.0773C83.7588 79.7082 84.2593 79.5006 84.7812 79.5H88.0625V81.4688C88.0619 81.9907 87.8543 82.4912 87.4852 82.8602C87.1161 83.2293 86.6157 83.4369 86.0937 83.4375H82.8125V81.4688Z" fill="#000131"/>
</svg>
