<svg width="30" height="30" viewBox="0 0 30 30" fill="none" xmlns="http://www.w3.org/2000/svg">
<g clip-path="url(#clip0)">
<path d="M29.3752 8.13409C29.2053 7.52813 28.8744 6.97952 28.4177 6.54659C27.948 6.10034 27.3724 5.78113 26.7452 5.61909C24.3977 5.00034 14.9927 5.00034 14.9927 5.00034C11.0718 4.95573 7.15195 5.15193 3.25516 5.58784C2.6279 5.76186 2.05337 6.0882 1.58266 6.53784C1.12016 6.98284 0.785161 7.53159 0.610161 8.13284C0.189777 10.3975 -0.0144738 12.697 0.000161127 15.0003C-0.0148389 17.3016 0.188911 19.6003 0.610161 21.8678C0.781411 22.4666 1.11516 23.0128 1.57891 23.4541C2.04266 23.8953 2.62016 24.2141 3.25516 24.3828C5.63391 25.0003 14.9927 25.0003 14.9927 25.0003C18.9185 25.045 22.8434 24.8488 26.7452 24.4128C27.3724 24.2508 27.948 23.9316 28.4177 23.4853C28.8802 23.0441 29.2089 22.4953 29.3739 21.8978C29.8053 19.634 30.015 17.3336 30.0002 15.0291C30.0326 12.7148 29.8231 10.4035 29.3752 8.13284V8.13409ZM12.0027 19.2803V10.7216L19.8277 15.0016L12.0027 19.2803Z" fill="#FBCE2F"/>
</g>
<defs>
<clipPath id="clip0">
<rect width="30" height="30" fill="white"/>
</clipPath>
</defs>
</svg>
