<svg width="35" height="35" viewBox="0 0 35 35" fill="none" xmlns="http://www.w3.org/2000/svg">
<path d="M17.4992 12.9434C14.9904 12.9434 12.943 14.9908 12.943 17.4996C12.943 20.0083 14.9904 22.0557 17.4992 22.0557C20.008 22.0557 22.0553 20.0083 22.0553 17.4996C22.0553 14.9908 20.008 12.9434 17.4992 12.9434ZM31.1642 17.4996C31.1642 15.6128 31.1813 13.7432 31.0754 11.8599C30.9694 9.6724 30.4704 7.731 28.8708 6.13139C27.2677 4.52836 25.3298 4.03275 23.1423 3.9268C21.2555 3.82084 19.3859 3.83793 17.5026 3.83793C15.6159 3.83793 13.7463 3.82084 11.863 3.9268C9.67546 4.03275 7.73405 4.53178 6.13444 6.13139C4.53141 7.73441 4.03581 9.6724 3.92985 11.8599C3.82389 13.7466 3.84098 15.6163 3.84098 17.4996C3.84098 19.3829 3.82389 21.2559 3.92985 23.1392C4.03581 25.3267 4.53483 27.2681 6.13444 28.8677C7.73747 30.4707 9.67546 30.9663 11.863 31.0723C13.7497 31.1783 15.6193 31.1612 17.5026 31.1612C19.3893 31.1612 21.259 31.1783 23.1423 31.0723C25.3298 30.9663 27.2712 30.4673 28.8708 28.8677C30.4738 27.2647 30.9694 25.3267 31.0754 23.1392C31.1847 21.2559 31.1642 19.3863 31.1642 17.4996ZM17.4992 24.5098C13.6198 24.5098 10.4889 21.3789 10.4889 17.4996C10.4889 13.6202 13.6198 10.4893 17.4992 10.4893C21.3786 10.4893 24.5094 13.6202 24.5094 17.4996C24.5094 21.3789 21.3786 24.5098 17.4992 24.5098ZM24.7965 11.8394C23.8908 11.8394 23.1593 11.108 23.1593 10.2022C23.1593 9.29643 23.8908 8.56498 24.7965 8.56498C25.7023 8.56498 26.4338 9.29643 26.4338 10.2022C26.434 10.4173 26.3919 10.6303 26.3097 10.829C26.2275 11.0278 26.1069 11.2084 25.9548 11.3605C25.8027 11.5126 25.6222 11.6331 25.4234 11.7153C25.2246 11.7975 25.0116 11.8397 24.7965 11.8394Z" fill="#FBCE2F"/>
</svg>
