<svg width="142" height="142" viewBox="0 0 142 142" fill="none" xmlns="http://www.w3.org/2000/svg">
<circle cx="71" cy="71" r="71" fill="#FBFBFB"/>
<g clip-path="url(#clip0)">
<path d="M108 76.9977L102.12 65.4495C101.84 64.8992 101.275 64.5527 100.657 64.5527H70.9999H41.342C40.7245 64.5527 40.1593 64.8992 39.8791 65.4495L33.9996 76.9977C33.7406 77.5067 33.7646 78.1135 34.063 78.6004C34.3614 79.0872 34.8914 79.3838 35.4623 79.3838H37.5112V108.358C37.5112 109.264 38.246 110 39.1526 110H102.842C103.748 110 104.483 109.264 104.483 108.358V79.384H106.537C107.108 79.384 107.638 79.0872 107.936 78.6005C108.235 78.1135 108.259 77.5067 108 76.9977ZM99.6512 67.8356L103.859 76.1009H77.8856L73.6774 67.8356H99.6512ZM42.3483 67.8356H68.3222L64.114 76.1009H38.1402L42.3483 67.8356ZM101.201 106.717H72.6413V97.6193C72.6413 96.7129 71.9064 95.9778 70.9999 95.9778C70.0933 95.9778 69.3584 96.7129 69.3584 97.6193V106.717H40.7944V79.384H65.1204C65.7379 79.384 66.303 79.0376 66.5832 78.4873L69.3584 73.0362V82.8793C69.3584 83.7857 70.0933 84.5207 70.9999 84.5207C71.9064 84.5207 72.6413 83.7857 72.6413 82.8793V73.0362L75.4165 78.4873C75.6967 79.0376 76.2618 79.384 76.8793 79.384H101.201V106.717Z" fill="#000131"/>
<path d="M56.9636 97.7275H47.6169C46.7103 97.7275 45.9754 98.4626 45.9754 99.369C45.9754 100.275 46.7103 101.01 47.6169 101.01H56.9636C57.8702 101.01 58.605 100.275 58.605 99.369C58.605 98.4626 57.8702 97.7275 56.9636 97.7275Z" fill="#000131"/>
<path d="M70.9999 59.7264C80.2878 59.7264 87.8444 52.1605 87.8444 42.8609C87.8442 33.5638 80.2878 26 70.9999 26C61.7093 26 54.1508 33.5638 54.1508 42.8609C54.1508 52.1605 61.7091 59.7264 70.9999 59.7264ZM70.9999 29.2829C78.4778 29.2829 84.5615 35.374 84.5615 42.8609C84.5615 50.3505 78.4778 56.4435 70.9999 56.4435C63.5195 56.4435 57.4337 50.3505 57.4337 42.8609C57.4337 35.374 63.5193 29.2829 70.9999 29.2829Z" fill="#000131"/>
<path d="M63.6406 45.3224L68.0096 49.0258C68.3072 49.2781 68.6837 49.4152 69.071 49.4152C69.1176 49.4152 69.1644 49.4132 69.2111 49.4093C69.6468 49.3718 70.0494 49.1624 70.33 48.827L78.5519 39.0004C79.1337 38.3052 79.0416 37.27 78.3464 36.6881C77.6511 36.1067 76.616 36.1984 76.0343 36.8938L68.8724 45.4534L65.7636 42.818C65.0721 42.2319 64.0362 42.3169 63.4502 43.0088C62.8637 43.7005 62.949 44.7361 63.6406 45.3224Z" fill="#000131"/>
<path d="M38.7534 44.5026H45.8552C46.7618 44.5026 47.4967 43.7676 47.4967 42.8612C47.4967 41.9548 46.7618 41.2197 45.8552 41.2197H38.7534C37.8468 41.2197 37.1119 41.9548 37.1119 42.8612C37.1119 43.7676 37.8468 44.5026 38.7534 44.5026Z" fill="#000131"/>
<path d="M37.9878 33.0809L45.0896 36.8265C45.3339 36.9554 45.5957 37.0164 45.8541 37.0164C46.4433 37.0164 47.0132 36.6982 47.3074 36.1404C47.7302 35.3385 47.4231 34.3456 46.6213 33.9228L39.5192 30.1772C38.7177 29.7544 37.7245 30.0613 37.3016 30.8633C36.8788 31.6652 37.1859 32.6581 37.9878 33.0809Z" fill="#000131"/>
<path d="M37.3009 54.8575C37.5949 55.4156 38.1648 55.7343 38.7545 55.7343C39.0124 55.7343 39.2742 55.6734 39.5181 55.5449L46.62 51.8041C47.422 51.3816 47.7298 50.3888 47.3073 49.5868C46.8848 48.7846 45.892 48.477 45.09 48.8994L37.9882 52.6402C37.1861 53.0627 36.8785 54.0555 37.3009 54.8575Z" fill="#000131"/>
<path d="M96.14 44.5026H103.242C104.148 44.5026 104.883 43.7676 104.883 42.8612C104.883 41.9548 104.148 41.2197 103.242 41.2197H96.14C95.2334 41.2197 94.4986 41.9548 94.4986 42.8612C94.4986 43.7676 95.2334 44.5026 96.14 44.5026Z" fill="#000131"/>
<path d="M96.1415 37.0165C96.3997 37.0165 96.6616 36.9555 96.9059 36.8266L104.008 33.081C104.81 32.6582 105.117 31.6653 104.694 30.8634C104.271 30.0616 103.278 29.7541 102.476 30.1773L95.3744 33.9229C94.5726 34.3458 94.2655 35.3387 94.6883 36.1405C94.9824 36.6983 95.552 37.0165 96.1415 37.0165Z" fill="#000131"/>
<path d="M95.3749 51.8042L102.477 55.545C102.721 55.6735 102.982 55.7344 103.24 55.7344C103.83 55.7344 104.4 55.4158 104.694 54.8576C105.117 54.0556 104.809 53.0628 104.007 52.6403L96.9049 48.8995C96.1027 48.477 95.1101 48.7846 94.6876 49.5869C94.2651 50.3889 94.5729 51.3817 95.3749 51.8042Z" fill="#000131"/>
<path d="M71 88.6084C70.0935 88.6084 69.3586 89.3434 69.3586 90.2498V90.2592C69.3586 91.1656 70.0935 91.896 71 91.896C71.9066 91.896 72.6415 91.1564 72.6415 90.25C72.6415 89.3436 71.9066 88.6084 71 88.6084Z" fill="#000131"/>
</g>
<defs>
<clipPath id="clip0">
<rect width="84" height="84" fill="white" transform="translate(29 26)"/>
</clipPath>
</defs>
</svg>
