<svg width="108" height="15" viewBox="0 0 108 15" fill="none" xmlns="http://www.w3.org/2000/svg">
<path d="M10.2381 10.3775C10.0681 10.5125 9.78809 10.65 9.39809 10.79C9.01309 10.93 8.55309 11.0475 8.01809 11.1425C7.48309 11.2425 6.92559 11.2925 6.34559 11.2925C5.36559 11.2925 4.44559 11.1225 3.58559 10.7825C2.72559 10.4425 2.02559 9.9075 1.48559 9.1775C0.945586 8.4475 0.675586 7.5325 0.675586 6.4325C0.675586 5.2225 0.990586 4.185 1.62059 3.32C2.25059 2.455 3.11309 1.8 4.20809 1.355C5.30809 0.909999 6.55059 0.687499 7.93559 0.687499C9.14059 0.687499 10.1831 0.867499 11.0631 1.2275C11.9431 1.5875 12.6131 2.0925 13.0731 2.7425C13.5381 3.3925 13.7706 4.14 13.7706 4.985C13.7706 5.855 13.5831 6.5925 13.2081 7.1975C12.8381 7.8025 12.3631 8.255 11.7831 8.555C11.2081 8.85 10.6106 9 9.99059 9.005C9.65559 9.005 9.36559 8.945 9.12059 8.825C8.88059 8.705 8.69809 8.555 8.57309 8.375C8.45309 8.195 8.39809 8.0225 8.40809 7.8575C8.36309 7.9975 8.26059 8.1325 8.10059 8.2625C7.94059 8.3925 7.73059 8.4975 7.47059 8.5775C7.21059 8.6575 6.91559 8.6975 6.58559 8.6975C6.19059 8.6975 5.83309 8.6075 5.51309 8.4275C5.19809 8.2475 4.94809 7.98 4.76309 7.625C4.57809 7.265 4.48559 6.83 4.48559 6.32C4.48559 5.68 4.60559 5.125 4.84559 4.655C5.08559 4.185 5.39809 3.83 5.78309 3.59C6.17309 3.345 6.58809 3.2225 7.02809 3.2225C7.28809 3.2225 7.51309 3.27 7.70309 3.365C7.89809 3.455 8.04559 3.565 8.14559 3.695C8.24559 3.82 8.29809 3.935 8.30309 4.04L8.38559 3.32H9.62309L9.24809 7.0775L9.24059 7.175C9.24059 7.405 9.31309 7.575 9.45809 7.685C9.60809 7.795 9.79809 7.85 10.0281 7.85C10.3331 7.85 10.6006 7.745 10.8306 7.535C11.0656 7.32 11.2481 7.0125 11.3781 6.6125C11.5131 6.2125 11.5881 5.7325 11.6031 5.1725C11.6231 4.5425 11.4781 4.005 11.1681 3.56C10.8631 3.11 10.4106 2.7675 9.81059 2.5325C9.21559 2.2925 8.49809 2.1725 7.65809 2.1725C6.75809 2.1725 5.94559 2.335 5.22059 2.66C4.49559 2.98 3.92059 3.455 3.49559 4.085C3.07559 4.71 2.86559 5.4625 2.86559 6.3425C2.86559 7.1175 3.03809 7.765 3.38309 8.285C3.72809 8.805 4.17559 9.19 4.72559 9.44C5.28059 9.685 5.87559 9.8075 6.51059 9.8075C6.94559 9.8075 7.33309 9.7675 7.67309 9.6875C8.01809 9.6025 8.29309 9.5075 8.49809 9.4025C8.70309 9.2975 8.83059 9.215 8.88059 9.155L10.2381 10.3775ZM7.02059 7.595C7.26059 7.595 7.47059 7.535 7.65059 7.415C7.83059 7.29 7.94309 7.1425 7.98809 6.9725L8.15309 5.045C8.14809 4.845 8.05559 4.685 7.87559 4.565C7.70059 4.445 7.50809 4.385 7.29809 4.385C7.11309 4.385 6.92809 4.465 6.74309 4.625C6.56309 4.785 6.41309 4.9975 6.29309 5.2625C6.17309 5.5275 6.11059 5.805 6.10559 6.095C6.10059 6.39 6.13559 6.6525 6.21059 6.8825C6.28559 7.1075 6.39309 7.2825 6.53309 7.4075C6.67309 7.5325 6.83559 7.595 7.02059 7.595ZM16.8799 8.1425C17.0399 8.6325 17.3349 8.9725 17.7649 9.1625C18.1999 9.3525 18.6874 9.4475 19.2274 9.4475C19.8224 9.4475 20.2474 9.3725 20.5024 9.2225C20.7624 9.0725 20.8924 8.8825 20.8924 8.6525C20.8924 8.3025 20.6974 8.0775 20.3074 7.9775C19.9224 7.8725 19.3499 7.7825 18.5899 7.7075C17.5299 7.6125 16.6449 7.4025 15.9349 7.0775C15.2299 6.7525 14.8774 6.1525 14.8774 5.2775C14.8774 4.4075 15.2799 3.7875 16.0849 3.4175C16.8949 3.0425 17.9174 2.855 19.1524 2.855C20.3474 2.855 21.3174 3.0125 22.0624 3.3275C22.8074 3.6375 23.2899 4.145 23.5099 4.85L21.3724 5.765C21.2074 5.33 20.9399 5.0075 20.5699 4.7975C20.2049 4.5825 19.7349 4.475 19.1599 4.475C18.5649 4.475 18.1299 4.5525 17.8549 4.7075C17.5849 4.8625 17.4499 5.055 17.4499 5.285C17.4499 5.595 17.6574 5.7975 18.0724 5.8925C18.4924 5.9825 19.0574 6.065 19.7674 6.14C20.8374 6.245 21.7224 6.47 22.4224 6.815C23.1224 7.155 23.4724 7.735 23.4724 8.555C23.4724 9.505 23.0774 10.1625 22.2874 10.5275C21.5024 10.8875 20.4899 11.0675 19.2499 11.0675C18.1399 11.0675 17.1674 10.915 16.3324 10.61C15.5024 10.305 14.9649 9.7675 14.7199 8.9975L16.8799 8.1425ZM30.4793 9.74V5.9675C30.4793 5.4725 30.3418 5.105 30.0668 4.865C29.7968 4.625 29.4068 4.505 28.8968 4.505C28.4168 4.505 28.0268 4.62 27.7268 4.85C27.4268 5.08 27.2443 5.4325 27.1793 5.9075L24.5918 5.24C24.6918 4.765 25.0293 4.2425 25.6043 3.6725C26.1843 3.1025 27.2868 2.8175 28.9118 2.8175C30.6268 2.8175 31.7543 3.1625 32.2943 3.8525C32.8343 4.5375 33.1043 5.445 33.1043 6.575V11H30.8918L30.4793 9.74ZM31.4318 8.765C31.3568 9.54 31.0018 10.1225 30.3668 10.5125C29.7368 10.9025 28.8793 11.0975 27.7943 11.0975C26.7743 11.0975 25.9593 10.905 25.3493 10.52C24.7443 10.13 24.4418 9.52 24.4418 8.69C24.4418 7.935 24.7243 7.3775 25.2893 7.0175C25.8593 6.6575 26.6168 6.4225 27.5618 6.3125C28.3018 6.2175 29.3218 6.17 30.6218 6.17V7.505C29.8718 7.53 29.2418 7.56 28.7318 7.595C28.1068 7.635 27.6843 7.725 27.4643 7.865C27.2493 8 27.1418 8.225 27.1418 8.54C27.1418 8.81 27.2393 9.0325 27.4343 9.2075C27.6343 9.3775 27.9518 9.4625 28.3868 9.4625C29.1218 9.4625 29.6568 9.37 29.9918 9.185C30.3318 9 30.5168 8.6025 30.5468 7.9925L31.4318 8.765ZM42.9102 9.0575C42.9102 9.3875 42.6052 9.81 41.9952 10.325C41.3902 10.835 40.3027 11.09 38.7327 11.09C36.9777 11.09 35.7977 10.72 35.1927 9.98C34.5927 9.235 34.2927 8.2325 34.2927 6.9725C34.2927 5.6825 34.6052 4.6675 35.2302 3.9275C35.8602 3.1875 37.0277 2.8175 38.7327 2.8175C40.4777 2.8175 41.6527 3.1825 42.2577 3.9125C42.8627 4.6425 43.1652 5.6575 43.1652 6.9575C43.1602 7.2125 43.1502 7.435 43.1352 7.625H36.5802V6.2375H40.6602L40.5177 6.4625C40.5177 5.6925 40.3702 5.1675 40.0752 4.8875C39.7852 4.6075 39.3377 4.4675 38.7327 4.4675C38.1127 4.4675 37.6377 4.6075 37.3077 4.8875C36.9777 5.1675 36.8127 5.8625 36.8127 6.9725C36.8127 8.0575 36.9752 8.7425 37.3002 9.0275C37.6302 9.3075 38.1077 9.4475 38.7327 9.4475C39.3527 9.4475 39.8227 9.3325 40.1427 9.1025C40.4677 8.8725 40.6302 8.58 40.6302 8.225L42.9102 9.0575ZM48.3799 11.1125C47.5349 11.1125 46.8599 10.9475 46.3549 10.6175C45.8549 10.2825 45.6049 9.6875 45.6049 8.8325V4.52H43.7974V2.96H45.6049V1.235H48.2224V2.96H50.8399V4.52H48.2224V8.33C48.2224 8.79 48.3024 9.0925 48.4624 9.2375C48.6224 9.3825 48.8799 9.455 49.2349 9.455C49.5549 9.45 49.9399 9.41 50.3899 9.335V10.9775C49.6099 11.0675 48.9399 11.1125 48.3799 11.1125ZM57.7986 9.74V5.9675C57.7986 5.4725 57.6611 5.105 57.3861 4.865C57.1161 4.625 56.7261 4.505 56.2161 4.505C55.7361 4.505 55.3461 4.62 55.0461 4.85C54.7461 5.08 54.5636 5.4325 54.4986 5.9075L51.9111 5.24C52.0111 4.765 52.3486 4.2425 52.9236 3.6725C53.5036 3.1025 54.6061 2.8175 56.2311 2.8175C57.9461 2.8175 59.0736 3.1625 59.6136 3.8525C60.1536 4.5375 60.4236 5.445 60.4236 6.575V11H58.2111L57.7986 9.74ZM58.7511 8.765C58.6761 9.54 58.3211 10.1225 57.6861 10.5125C57.0561 10.9025 56.1986 11.0975 55.1136 11.0975C54.0936 11.0975 53.2786 10.905 52.6686 10.52C52.0636 10.13 51.7611 9.52 51.7611 8.69C51.7611 7.935 52.0436 7.3775 52.6086 7.0175C53.1786 6.6575 53.9361 6.4225 54.8811 6.3125C55.6211 6.2175 56.6411 6.17 57.9411 6.17V7.505C57.1911 7.53 56.5611 7.56 56.0511 7.595C55.4261 7.635 55.0036 7.725 54.7836 7.865C54.5686 8 54.4611 8.225 54.4611 8.54C54.4611 8.81 54.5586 9.0325 54.7536 9.2075C54.9536 9.3775 55.2711 9.4625 55.7061 9.4625C56.4411 9.4625 56.9761 9.37 57.3111 9.185C57.6511 9 57.8361 8.6025 57.8661 7.9925L58.7511 8.765ZM63.667 8.1425C63.827 8.6325 64.122 8.9725 64.552 9.1625C64.987 9.3525 65.4745 9.4475 66.0145 9.4475C66.6095 9.4475 67.0345 9.3725 67.2895 9.2225C67.5495 9.0725 67.6795 8.8825 67.6795 8.6525C67.6795 8.3025 67.4845 8.0775 67.0945 7.9775C66.7095 7.8725 66.137 7.7825 65.377 7.7075C64.317 7.6125 63.432 7.4025 62.722 7.0775C62.017 6.7525 61.6645 6.1525 61.6645 5.2775C61.6645 4.4075 62.067 3.7875 62.872 3.4175C63.682 3.0425 64.7045 2.855 65.9395 2.855C67.1345 2.855 68.1045 3.0125 68.8495 3.3275C69.5945 3.6375 70.077 4.145 70.297 4.85L68.1595 5.765C67.9945 5.33 67.727 5.0075 67.357 4.7975C66.992 4.5825 66.522 4.475 65.947 4.475C65.352 4.475 64.917 4.5525 64.642 4.7075C64.372 4.8625 64.237 5.055 64.237 5.285C64.237 5.595 64.4445 5.7975 64.8595 5.8925C65.2795 5.9825 65.8445 6.065 66.5545 6.14C67.6245 6.245 68.5095 6.47 69.2095 6.815C69.9095 7.155 70.2595 7.735 70.2595 8.555C70.2595 9.505 69.8645 10.1625 69.0745 10.5275C68.2895 10.8875 67.277 11.0675 66.037 11.0675C64.927 11.0675 63.9545 10.915 63.1195 10.61C62.2895 10.305 61.752 9.7675 61.507 8.9975L63.667 8.1425ZM76.5614 11.0675C75.6214 11.0675 74.8939 10.8675 74.3789 10.4675C73.8689 10.0625 73.5789 9.495 73.5089 8.765L74.0339 8.195C74.1189 8.555 74.3114 8.84 74.6114 9.05C74.9164 9.255 75.3239 9.3575 75.8339 9.3575C76.3139 9.3575 76.6939 9.2175 76.9739 8.9375C77.2539 8.6525 77.3939 7.9875 77.3939 6.9425C77.3939 5.9125 77.2539 5.255 76.9739 4.97C76.6939 4.68 76.3139 4.535 75.8339 4.535C75.3189 4.535 74.9114 4.665 74.6114 4.925C74.3114 5.18 74.1189 5.4675 74.0339 5.7875L73.5089 5.135C73.5789 4.45 73.8764 3.895 74.4014 3.47C74.9264 3.04 75.6539 2.825 76.5839 2.825C77.9139 2.825 78.8164 3.2 79.2914 3.95C79.7664 4.7 80.0039 5.695 80.0039 6.935C80.0039 8.17 79.7664 9.1675 79.2914 9.9275C78.8164 10.6875 77.9064 11.0675 76.5614 11.0675ZM71.4239 2.96H73.9214L74.0339 4.34V14.78H71.4239V2.96ZM85.4398 11.0675C83.7548 11.0675 82.5898 10.7225 81.9448 10.0325C81.2998 9.3375 80.9773 8.31 80.9773 6.95C80.9773 5.59 81.2998 4.5625 81.9448 3.8675C82.5898 3.1725 83.7548 2.825 85.4398 2.825C87.1198 2.825 88.2798 3.1775 88.9198 3.8825C89.5648 4.5875 89.8873 5.62 89.8873 6.98C89.8873 8.34 89.5648 9.3625 88.9198 10.0475C88.2798 10.7275 87.1198 11.0675 85.4398 11.0675ZM85.4398 9.3575C86.0048 9.3575 86.4523 9.215 86.7823 8.93C87.1123 8.64 87.2773 7.98 87.2773 6.95C87.2773 5.92 87.1123 5.26 86.7823 4.97C86.4523 4.68 86.0048 4.535 85.4398 4.535C84.8698 4.535 84.4173 4.68 84.0823 4.97C83.7523 5.26 83.5873 5.92 83.5873 6.95C83.5873 7.98 83.7523 8.64 84.0823 8.93C84.4173 9.215 84.8698 9.3575 85.4398 9.3575ZM96.6471 7.13C96.6471 5.915 96.5346 5.18 96.3096 4.925C96.0846 4.665 95.7571 4.535 95.3271 4.535C94.8221 4.535 94.4171 4.665 94.1121 4.925C93.8121 5.18 93.6221 5.4675 93.5421 5.7875L93.0696 5.135C93.1396 4.47 93.4771 3.92 94.0821 3.485C94.6871 3.045 95.4171 2.825 96.2721 2.825C97.4371 2.825 98.2246 3.1525 98.6346 3.8075C99.0496 4.4625 99.2571 5.57 99.2571 7.13H96.6471ZM90.9396 2.96H93.4446L93.5496 4.7825V11H90.9396V2.96ZM104.806 11.1125C103.961 11.1125 103.286 10.9475 102.781 10.6175C102.281 10.2825 102.031 9.6875 102.031 8.8325V4.52H100.223V2.96H102.031V1.235H104.648V2.96H107.266V4.52H104.648V8.33C104.648 8.79 104.728 9.0925 104.888 9.2375C105.048 9.3825 105.306 9.455 105.661 9.455C105.981 9.45 106.366 9.41 106.816 9.335V10.9775C106.036 11.0675 105.366 11.1125 104.806 11.1125Z" fill="#000131"/>
</svg>
